# xmcd
#
# Track frame offsets: 
#        150
#        19770
#        33493
#        50780
#        68490
#        84013
#        106388
#        133578
#        159848
#        186548
#        213960
#        231858
#
# Disc length: 3323 seconds
#
# Revision: 3
# Processed by: cddbd v1.5.2PL0 Copyright (c) Steve Scherf et al.
# Submitted via: ExactAudioCopy v0.99pb1
#
DISCID=990cf90c
DTITLE=Gary Moore - Spanish Guitar
DYEAR=1993
DGENRE=Rock
TTITLE0=Back On The Streets
TTITLE1=Fanatical Fascists
TTITLE2=Don't Believe A Word
TTITLE3=Spanish Guitar (P. Lynnot vocal)
TTITLE4=Parisienne Walkways
TTITLE5=Put It This Way
TTITLE6=Desperado
TTITLE7=Castles
TTITLE8=Fighting Talk
TTITLE9=The Scorch
TTITLE10=Spanish Guitar (G. Moore vocal)
TTITLE11=Spanish Guitar (Instrumental)
EXTD=YEAR: 1993
EXTT0=
EXTT1=
EXTT2=
EXTT3=
EXTT4=
EXTT5=
EXTT6=
EXTT7=
EXTT8=
EXTT9=
EXTT10=
EXTT11=
PLAYORDER=
